<svg width="24" height="25" viewBox="0 0 24 25" fill="none" xmlns="http://www.w3.org/2000/svg">
<path d="M8 6.5H16V8.5H8V6.5ZM4 10.5V8.5H8V10.5H4ZM2 12.5V10.5H4V12.5H2ZM2 14.5V12.5H0V14.5H2ZM4 16.5H2V14.5H4V16.5ZM8 18.5H4V16.5H8V18.5ZM16 18.5V20.5H8V18.5H16ZM20 16.5V18.5H16V16.5H20ZM22 14.5V16.5H20V14.5H22ZM22 12.5H24V14.5H22V12.5ZM20 10.5H22V12.5H20V10.5ZM20 10.5V8.5H16V10.5H20ZM9 10.5H11V12.5H9V10.5ZM13 12.5H11V14.5H9V16.5H11V14.5H13V16.5H15V14.5H13V12.5ZM13 12.5V10.5H15V12.5H13Z" fill="#F1F1F1"/>
</svg>
